<?xml version="1.0" encoding="UTF-8" standalone="no"?>
<svg width="70px" height="38px" viewBox="0 0 70 38" version="1.1" xmlns="http://www.w3.org/2000/svg" xmlns:xlink="http://www.w3.org/1999/xlink" xmlns:sketch="http://www.bohemiancoding.com/sketch/ns">
    <!-- Generator: Sketch 3.2.1 (9971) - http://www.bohemiancoding.com/sketch -->
    <title>logo-light</title>
    <desc>Created with Sketch.</desc>
    <defs></defs>
    <g id="Page-1" stroke="none" stroke-width="1" fill="none" fill-rule="evenodd" sketch:type="MSPage">
        <g id="Slices" sketch:type="MSArtboardGroup" transform="translate(-62.000000, -40.000000)" fill="#FFFFFF">
            <g id="logo-light" sketch:type="MSLayerGroup" transform="translate(62.000000, 40.000000)">
                <path d="M6.52,23 C6.52,23.5066692 6.6266656,23.8999986 6.84,24.18 C7.0533344,24.4600014 7.4666636,24.6 8.08,24.6 C8.4533352,24.6 8.906664,24.5600004 9.44,24.48 L9.64,28.88 C9.106664,29.0400008 8.5000034,29.1666662 7.82,29.26 C7.1399966,29.3533338 6.4400036,29.4 5.72,29.4 C4.653328,29.4 3.7600036,29.2400016 3.04,28.92 C2.3199964,28.5999984 1.7466688,28.173336 1.32,27.64 C0.8933312,27.106664 0.5866676,26.5000034 0.4,25.82 C0.2133324,25.1399966 0.12,24.4400036 0.12,23.72 L0.12,0.76 L6.52,0.76 L6.52,23 Z M28.94,9.4 L28.94,29 L22.78,29 L22.78,26.44 C22.0333296,27.5600056 21.193338,28.3333312 20.26,28.76 C19.326662,29.1866688 18.3400052,29.4 17.3,29.4 C15.9933268,29.4 14.8933378,29.1266694 14,28.58 C13.1066622,28.0333306 12.3866694,27.3066712 11.84,26.4 C11.2933306,25.4933288 10.9000012,24.4466726 10.66,23.26 C10.4199988,22.0733274 10.3,20.8266732 10.3,19.52 L10.3,9.4 L16.7,9.4 L16.7,19.64 C16.7,21.2666748 16.9266644,22.4599962 17.38,23.22 C17.8333356,23.9800038 18.5799948,24.36 19.62,24.36 C20.28667,24.36 20.8666642,24.2133348 21.36,23.92 C21.8533358,23.6266652 22.2466652,23.2666688 22.54,22.84 L22.54,9.4 L28.94,9.4 Z M50.12,9.4 L50.12,13.48 L47.24,13.48 L47.2,13.44 C47.4933348,14.240004 47.64,15.0133296 47.64,15.76 C47.64,16.6666712 47.4600018,17.519996 47.1,18.32 C46.7399982,19.120004 46.2066702,19.819997 45.5,20.42 C44.7933298,21.020003 43.9133386,21.4933316 42.86,21.84 C41.8066614,22.1866684 40.5866736,22.36 39.2,22.36 L38.96,22.36 C38.8533328,22.5466676 38.766667,22.7266658 38.7,22.9 C38.633333,23.0733342 38.6,23.2666656 38.6,23.48 C38.6,23.8533352 38.7399986,24.1266658 39.02,24.3 C39.3000014,24.4733342 39.6533312,24.5733332 40.08,24.6 L43.52,24.8 C45.4933432,24.933334 47.0733274,25.4466622 48.26,26.34 C49.4466726,27.2333378 50.04,28.5599912 50.04,30.32 C50.04,31.5466728 49.7133366,32.6199954 49.06,33.54 C48.4066634,34.4600046 47.5400054,35.219997 46.46,35.82 C45.3799946,36.420003 44.1600068,36.8733318 42.8,37.18 C41.4399932,37.4866682 40.0533404,37.64 38.64,37.64 C37.5199944,37.64 36.4333386,37.5600008 35.38,37.4 C34.3266614,37.2399992 33.3866708,36.9666686 32.56,36.58 C31.7333292,36.1933314 31.0666692,35.6800032 30.56,35.04 C30.0533308,34.3999968 29.8,33.613338 29.8,32.68 C29.8,32.0666636 29.933332,31.526669 30.2,31.06 C30.466668,30.593331 30.8266644,30.1866684 31.28,29.84 C31.7333356,29.4933316 32.2533304,29.2000012 32.84,28.96 C33.4266696,28.7199988 34.0266636,28.533334 34.64,28.4 C33.4666608,27.8133304 32.88,26.920006 32.88,25.72 C32.88,25.2133308 32.979999,24.760002 33.18,24.36 C33.380001,23.959998 33.6266652,23.6066682 33.92,23.3 C34.2133348,22.9933318 34.5399982,22.7266678 34.9,22.5 C35.2600018,22.2733322 35.5999984,22.093334 35.92,21.96 C34.2133248,21.5066644 32.926671,20.7266722 32.06,19.62 C31.193329,18.5133278 30.76,17.226674 30.76,15.76 C30.76,14.7999952 30.9399982,13.9133374 31.3,13.1 C31.6600018,12.2866626 32.1933298,11.5733364 32.9,10.96 C33.6066702,10.3466636 34.4866614,9.8666684 35.54,9.52 C36.5933386,9.1733316 37.8133264,9 39.2,9 C39.7866696,9 40.3399974,9.033333 40.86,9.1 C41.3800026,9.166667 41.8666644,9.266666 42.32,9.4 L50.12,9.4 Z M37.32,29.08 C36.9999984,29.3200012 36.6666684,29.6133316 36.32,29.96 C35.9733316,30.3066684 35.8,30.7599972 35.8,31.32 C35.8,32.0666704 36.1133302,32.6133316 36.74,32.96 C37.3666698,33.3066684 38.2399944,33.48 39.36,33.48 C39.9466696,33.48 40.5266638,33.4200006 41.1,33.3 C41.6733362,33.1799994 42.1866644,33.0066678 42.64,32.78 C43.0933356,32.5533322 43.453332,32.2866682 43.72,31.98 C43.986668,31.6733318 44.12,31.320002 44.12,30.92 C44.12,30.4399976 43.953335,30.0933344 43.62,29.88 C43.286665,29.6666656 42.7600036,29.5333336 42.04,29.48 L37.32,29.08 Z M39.2,18.44 C40.133338,18.44 40.8399976,18.1933358 41.32,17.7 C41.8000024,17.2066642 42.04,16.5333376 42.04,15.68 C42.04,14.8266624 41.8000024,14.1533358 41.32,13.66 C40.8399976,13.1666642 40.133338,12.92 39.2,12.92 C38.266662,12.92 37.5600024,13.1666642 37.08,13.66 C36.5999976,14.1533358 36.36,14.8266624 36.36,15.68 C36.36,16.5333376 36.5999976,17.2066642 37.08,17.7 C37.5600024,18.1933358 38.266662,18.44 39.2,18.44 L39.2,18.44 Z" id="lugg" sketch:type="MSShapeGroup"></path>
                <path d="M69.38,9.4 L69.38,13.48 L66.5,13.48 L66.46,13.44 C66.7533348,14.240004 66.9,15.0133296 66.9,15.76 C66.9,16.6666712 66.7200018,17.519996 66.36,18.32 C65.9999982,19.120004 65.4666702,19.819997 64.76,20.42 C64.0533298,21.020003 63.1733386,21.4933316 62.12,21.84 C61.0666614,22.1866684 59.8466736,22.36 58.46,22.36 L58.22,22.36 C58.1133328,22.5466676 58.026667,22.7266658 57.96,22.9 C57.893333,23.0733342 57.86,23.2666656 57.86,23.48 C57.86,23.8533352 57.9999986,24.1266658 58.28,24.3 C58.5600014,24.4733342 58.9133312,24.5733332 59.34,24.6 L62.78,24.8 C64.7533432,24.933334 66.3333274,25.4466622 67.52,26.34 C68.7066726,27.2333378 69.3,28.5599912 69.3,30.32 C69.3,31.5466728 68.9733366,32.6199954 68.32,33.54 C67.6666634,34.4600046 66.8000054,35.219997 65.72,35.82 C64.6399946,36.420003 63.4200068,36.8733318 62.06,37.18 C60.6999932,37.4866682 59.3133404,37.64 57.9,37.64 C56.7799944,37.64 55.6933386,37.5600008 54.64,37.4 C53.5866614,37.2399992 52.6466708,36.9666686 51.82,36.58 C50.9933292,36.1933314 50.3266692,35.6800032 49.82,35.04 C49.3133308,34.3999968 49.06,33.613338 49.06,32.68 C49.06,32.0666636 49.193332,31.526669 49.46,31.06 C49.726668,30.593331 50.0866644,30.1866684 50.54,29.84 C50.9933356,29.4933316 51.5133304,29.2000012 52.1,28.96 C52.6866696,28.7199988 53.2866636,28.533334 53.9,28.4 C52.7266608,27.8133304 52.14,26.920006 52.14,25.72 C52.14,25.2133308 52.239999,24.760002 52.44,24.36 C52.640001,23.959998 52.8866652,23.6066682 53.18,23.3 C53.4733348,22.9933318 53.7999982,22.7266678 54.16,22.5 C54.5200018,22.2733322 54.8599984,22.093334 55.18,21.96 C53.4733248,21.5066644 52.186671,20.7266722 51.32,19.62 C50.453329,18.5133278 50.02,17.226674 50.02,15.76 C50.02,14.7999952 50.1999982,13.9133374 50.56,13.1 C50.9200018,12.2866626 51.4533298,11.5733364 52.16,10.96 C52.8666702,10.3466636 53.7466614,9.8666684 54.8,9.52 C55.8533386,9.1733316 57.0733264,9 58.46,9 C59.0466696,9 59.5999974,9.033333 60.12,9.1 C60.6400026,9.166667 61.1266644,9.266666 61.58,9.4 L69.38,9.4 Z M56.58,29.08 C56.2599984,29.3200012 55.9266684,29.6133316 55.58,29.96 C55.2333316,30.3066684 55.06,30.7599972 55.06,31.32 C55.06,32.0666704 55.3733302,32.6133316 56,32.96 C56.6266698,33.3066684 57.4999944,33.48 58.62,33.48 C59.2066696,33.48 59.7866638,33.4200006 60.36,33.3 C60.9333362,33.1799994 61.4466644,33.0066678 61.9,32.78 C62.3533356,32.5533322 62.713332,32.2866682 62.98,31.98 C63.246668,31.6733318 63.38,31.320002 63.38,30.92 C63.38,30.4399976 63.213335,30.0933344 62.88,29.88 C62.546665,29.6666656 62.0200036,29.5333336 61.3,29.48 L56.58,29.08 Z M58.46,18.44 C59.393338,18.44 60.0999976,18.1933358 60.58,17.7 C61.0600024,17.2066642 61.3,16.5333376 61.3,15.68 C61.3,14.8266624 61.0600024,14.1533358 60.58,13.66 C60.0999976,13.1666642 59.393338,12.92 58.46,12.92 C57.526662,12.92 56.8200024,13.1666642 56.34,13.66 C55.8599976,14.1533358 55.62,14.8266624 55.62,15.68 C55.62,16.5333376 55.8599976,17.2066642 56.34,17.7 C56.8200024,18.1933358 57.526662,18.44 58.46,18.44 Z" id="Path" sketch:type="MSShapeGroup"></path>
            </g>
        </g>
    </g>
</svg>